REM DIRINDEX 1\3,1\2\4,1\2\5,1\2\6
REM DIRNAME folder01,folder02,folder03,folder04,folder05,folder06
TITLE ""
FILE "002.mp3" MP3
  TRACK 01 AUDIO
    TITLE "4:cjc137_0045"
    INDEX 01 00:00:00
  TRACK 02 AUDIO
    TITLE "0:"
    INDEX 01 00:00:74
  TRACK 03 AUDIO
    TITLE "6:cjc137_0046"
    INDEX 01 00:01:07
  TRACK 04 AUDIO
    TITLE "0:"
    INDEX 01 00:02:06
  TRACK 05 AUDIO
    TITLE "5:cjc137_0047"
    INDEX 01 00:02:16
  TRACK 06 AUDIO
    TITLE "0:"
    INDEX 01 00:03:12
  TRACK 07 AUDIO
    TITLE "4:cjc137_0048"
    INDEX 01 00:04:27
  TRACK 08 AUDIO
    TITLE "0:"
    INDEX 01 00:05:28
  TRACK 09 AUDIO
    TITLE "6:cjc137_0049"
    INDEX 01 00:05:36
  TRACK 10 AUDIO
    TITLE "0:"
    INDEX 01 00:06:47
  TRACK 11 AUDIO
    TITLE "5:cjc137_0050"
    INDEX 01 00:06:69
  TRACK 12 AUDIO
    TITLE "0:"
    INDEX 01 00:07:72
  TRACK 13 AUDIO
    TITLE "4:cjc137_0051"
    INDEX 01 00:09:00
  TRACK 14 AUDIO
    TITLE "0:"
    INDEX 01 00:10:21
  TRACK 15 AUDIO
    TITLE "6:cjc137_0052"
    INDEX 01 00:10:31
  TRACK 16 AUDIO
    TITLE "0:"
    INDEX 01 00:11:50
  TRACK 17 AUDIO
    TITLE "5:cjc137_0053"
    INDEX 01 00:11:62
  TRACK 18 AUDIO
    TITLE "0:"
    INDEX 01 00:13:08
  TRACK 19 AUDIO
    TITLE "4:cjc137_0054"
    INDEX 01 00:14:13
  TRACK 20 AUDIO
    TITLE "0:"
    INDEX 01 00:15:07
  TRACK 21 AUDIO
    TITLE "6:cjc137_0055"
    INDEX 01 00:15:15
  TRACK 22 AUDIO
    TITLE "0:"
    INDEX 01 00:16:00
  TRACK 23 AUDIO
    TITLE "5:cjc137_0056"
    INDEX 01 00:16:12
  TRACK 24 AUDIO
    TITLE "0:"
    INDEX 01 00:17:04
  TRACK 25 AUDIO
    TITLE "4:cjc137_0057"
    INDEX 01 00:18:09
  TRACK 26 AUDIO
    TITLE "0:"
    INDEX 01 00:19:22
  TRACK 27 AUDIO
    TITLE "6:cjc137_0058"
    INDEX 01 00:19:32
  TRACK 28 AUDIO
    TITLE "0:"
    INDEX 01 00:20:53
  TRACK 29 AUDIO
    TITLE "5:cjc137_0059"
    INDEX 01 00:20:63
  TRACK 30 AUDIO
    TITLE "0:"
    INDEX 01 00:22:01
  TRACK 31 AUDIO
    TITLE "4:cjc137_0060"
    INDEX 01 00:23:06
  TRACK 32 AUDIO
    TITLE "0:"
    INDEX 01 00:24:33
  TRACK 33 AUDIO
    TITLE "6:cjc137_0061"
    INDEX 01 00:24:43
  TRACK 34 AUDIO
    TITLE "0:"
    INDEX 01 00:25:56
  TRACK 35 AUDIO
    TITLE "5:cjc137_0062"
    INDEX 01 00:25:66
  TRACK 36 AUDIO
    TITLE "0:"
    INDEX 01 00:27:18
  TRACK 37 AUDIO
    TITLE "4:cjc137_0063"
    INDEX 01 00:28:27
  TRACK 38 AUDIO
    TITLE "0:"
    INDEX 01 00:29:29
  TRACK 39 AUDIO
    TITLE "6:cjc137_0064"
    INDEX 01 00:29:38
  TRACK 40 AUDIO
    TITLE "0:"
    INDEX 01 00:31:31
  TRACK 41 AUDIO
    TITLE "5:cjc137_0065"
    INDEX 01 00:31:43
  TRACK 42 AUDIO
    TITLE "0:"
    INDEX 01 00:32:48
  TRACK 43 AUDIO
    TITLE "4:cjc137_0066"
    INDEX 01 00:33:54
  TRACK 44 AUDIO
    TITLE "0:"
    INDEX 01 00:34:49
  TRACK 45 AUDIO
    TITLE "6:cjc137_0067"
    INDEX 01 00:34:57
  TRACK 46 AUDIO
    TITLE "0:"
    INDEX 01 00:35:55
  TRACK 47 AUDIO
    TITLE "5:cjc137_0068"
    INDEX 01 00:35:66
  TRACK 48 AUDIO
    TITLE "0:"
    INDEX 01 00:36:60
  TRACK 49 AUDIO
    TITLE "4:cjc137_0069"
    INDEX 01 00:37:65
  TRACK 50 AUDIO
    TITLE "0:"
    INDEX 01 00:38:67
  TRACK 51 AUDIO
    TITLE "6:cjc137_0070"
    INDEX 01 00:39:02
  TRACK 52 AUDIO
    TITLE "0:"
    INDEX 01 00:40:50
  TRACK 53 AUDIO
    TITLE "5:cjc137_0071"
    INDEX 01 00:40:60
  TRACK 54 AUDIO
    TITLE "0:"
    INDEX 01 00:41:63
  TRACK 55 AUDIO
    TITLE "4:cjc137_0072"
    INDEX 01 00:42:68
  TRACK 56 AUDIO
    TITLE "0:"
    INDEX 01 00:43:72
  TRACK 57 AUDIO
    TITLE "6:cjc137_0073"
    INDEX 01 00:44:11
  TRACK 58 AUDIO
    TITLE "0:"
    INDEX 01 00:45:41
  TRACK 59 AUDIO
    TITLE "5:cjc137_0074"
    INDEX 01 00:45:53
  TRACK 60 AUDIO
    TITLE "0:"
    INDEX 01 00:46:60
  TRACK 61 AUDIO
    TITLE "4:cjc137_0075"
    INDEX 01 00:47:66
  TRACK 62 AUDIO
    TITLE "0:"
    INDEX 01 00:48:63
  TRACK 63 AUDIO
    TITLE "6:cjc137_0076"
    INDEX 01 00:48:73
  TRACK 64 AUDIO
    TITLE "0:"
    INDEX 01 00:49:65
  TRACK 65 AUDIO
    TITLE "5:cjc137_0077"
    INDEX 01 00:50:01
  TRACK 66 AUDIO
    TITLE "0:"
    INDEX 01 00:50:74
  TRACK 67 AUDIO
    TITLE "4:cjc137_0078"
    INDEX 01 00:52:04
  TRACK 68 AUDIO
    TITLE "0:"
    INDEX 01 00:53:11
  TRACK 69 AUDIO
    TITLE "6:cjc137_0079"
    INDEX 01 00:53:21
  TRACK 70 AUDIO
    TITLE "0:"
    INDEX 01 00:54:19
  TRACK 71 AUDIO
    TITLE "5:cjc137_0080"
    INDEX 01 00:54:34
  TRACK 72 AUDIO
    TITLE "0:"
    INDEX 01 00:55:40
  TRACK 73 AUDIO
    TITLE "4:cjc137_0081"
    INDEX 01 00:56:45
  TRACK 74 AUDIO
    TITLE "0:"
    INDEX 01 00:57:48
  TRACK 75 AUDIO
    TITLE "6:cjc137_0082"
    INDEX 01 00:57:58
  TRACK 76 AUDIO
    TITLE "0:"
    INDEX 01 00:58:40
  TRACK 77 AUDIO
    TITLE "5:cjc137_0083"
    INDEX 01 00:58:52
  TRACK 78 AUDIO
    TITLE "0:"
    INDEX 01 00:59:55
  TRACK 79 AUDIO
    TITLE "4:cjc137_0084"
    INDEX 01 01:00:60
  TRACK 80 AUDIO
    TITLE "0:"
    INDEX 01 01:01:60
  TRACK 81 AUDIO
    TITLE "6:cjc137_0085"
    INDEX 01 01:01:70
  TRACK 82 AUDIO
    TITLE "0:"
    INDEX 01 01:03:02
  TRACK 83 AUDIO
    TITLE "5:cjc137_0086"
    INDEX 01 01:03:16
  TRACK 84 AUDIO
    TITLE "0:"
    INDEX 01 01:04:19
